<svg xmlns="http://www.w3.org/2000/svg" xmlns:xlink="http://www.w3.org/1999/xlink" viewBox="0 0 26.49 26.49"><defs><style>.cls-1{fill:url(#Degradado_sin_nombre_40);}.cls-2{fill:url(#Degradado_sin_nombre_40-2);}</style><linearGradient id="Degradado_sin_nombre_40" x1="-107.71" y1="-7.79" x2="445.68" y2="88.45" gradientUnits="userSpaceOnUse"><stop offset="0.38" stop-color="#ffd545"/><stop offset="0.46" stop-color="#f69037"/><stop offset="0.54" stop-color="#f05a35"/><stop offset="0.63" stop-color="#ec1a75"/></linearGradient><linearGradient id="Degradado_sin_nombre_40-2" x1="-107.68" y1="-7.94" x2="445.71" y2="88.3" xlink:href="#Degradado_sin_nombre_40"/></defs><title>web</title><g id="Layer_5" data-name="Layer 5"><path class="cls-1" d="M18.37,26.49H8.11A8.12,8.12,0,0,1,0,18.37V8.11A8.12,8.12,0,0,1,8.11,0H18.37a8.12,8.12,0,0,1,8.12,8.11V18.37A8.13,8.13,0,0,1,18.37,26.49ZM8.11,1A7.14,7.14,0,0,0,1,8.11V18.37A7.13,7.13,0,0,0,8.11,25.5H18.37a7.13,7.13,0,0,0,7.13-7.13V8.11A7.14,7.14,0,0,0,18.37,1Z"/><path class="cls-2" d="M16.78,6.25l-2.06,0a3.05,3.05,0,0,0-2.18.86,3,3,0,0,0-.91,2.16v2H9.71a.14.14,0,0,0-.14.14v2.46a.14.14,0,0,0,.14.14h1.92v6.22a.14.14,0,0,0,.14.14h2.54a.14.14,0,0,0,.14-.14V13.92h1.93a.14.14,0,0,0,.14-.12l.32-2.46a.14.14,0,0,0,0-.11.16.16,0,0,0-.11-.05H14.45V9.94A1.43,1.43,0,0,1,14.71,9a.78.78,0,0,1,.61-.24h1.45a.15.15,0,0,0,.15-.14V6.39A.14.14,0,0,0,16.78,6.25Z"/><path class="cls-1" d="M18.37,26.49H8.11A8.12,8.12,0,0,1,0,18.37V8.11A8.12,8.12,0,0,1,8.11,0H18.37a8.12,8.12,0,0,1,8.12,8.11V18.37A8.13,8.13,0,0,1,18.37,26.49ZM8.11,1A7.14,7.14,0,0,0,1,8.11V18.37A7.13,7.13,0,0,0,8.11,25.5H18.37a7.13,7.13,0,0,0,7.13-7.13V8.11A7.14,7.14,0,0,0,18.37,1Z"/><path class="cls-2" d="M16.78,6.25l-2.06,0a3.05,3.05,0,0,0-2.18.86,3,3,0,0,0-.91,2.16v2H9.71a.14.14,0,0,0-.14.14v2.46a.14.14,0,0,0,.14.14h1.92v6.22a.14.14,0,0,0,.14.14h2.54a.14.14,0,0,0,.14-.14V13.92h1.93a.14.14,0,0,0,.14-.12l.32-2.46a.14.14,0,0,0,0-.11.16.16,0,0,0-.11-.05H14.45V9.94A1.43,1.43,0,0,1,14.71,9a.78.78,0,0,1,.61-.24h1.45a.15.15,0,0,0,.15-.14V6.39A.14.14,0,0,0,16.78,6.25Z"/></g></svg>