<svg xmlns="http://www.w3.org/2000/svg" xmlns:xlink="http://www.w3.org/1999/xlink" viewBox="0 0 131.97 704.19"><defs><style>.cls-1,.cls-2,.cls-3{fill:none;stroke-miterlimit:10;stroke-width:3px;}.cls-1{stroke:url(#Degradado_sin_nombre_40);}.cls-2{stroke:url(#Degradado_sin_nombre_40-2);}.cls-3{stroke:url(#Degradado_sin_nombre_40-3);}.cls-4{fill:url(#Degradado_sin_nombre_40-4);}.cls-5{fill:url(#Degradado_sin_nombre_40-5);}.cls-6{fill:url(#Degradado_sin_nombre_40-6);}</style><linearGradient id="Degradado_sin_nombre_40" x1="8.17" y1="605.48" x2="108.06" y2="706.62" gradientUnits="userSpaceOnUse"><stop offset="0.38" stop-color="#ffd545"/><stop offset="0.46" stop-color="#f69037"/><stop offset="0.54" stop-color="#f05a35"/><stop offset="0.63" stop-color="#ec1a75"/></linearGradient><linearGradient id="Degradado_sin_nombre_40-2" x1="17.56" y1="482.55" x2="114.14" y2="580.34" xlink:href="#Degradado_sin_nombre_40"/><linearGradient id="Degradado_sin_nombre_40-3" x1="12.08" y1="348.14" x2="120.51" y2="457.92" xlink:href="#Degradado_sin_nombre_40"/><linearGradient id="Degradado_sin_nombre_40-4" x1="-253.39" y1="-30.18" x2="561.48" y2="794.85" xlink:href="#Degradado_sin_nombre_40"/><linearGradient id="Degradado_sin_nombre_40-5" x1="-195.54" y1="-87.31" x2="619.33" y2="737.72" xlink:href="#Degradado_sin_nombre_40"/><linearGradient id="Degradado_sin_nombre_40-6" x1="-124.94" y1="-157.05" x2="689.93" y2="667.99" xlink:href="#Degradado_sin_nombre_40"/></defs><title>web</title><g id="Layer_11" data-name="Layer 11"><path class="cls-1" d="M130.47,658.23c0,18.25-7.4,32.88-20.41,44.08L87.48,687.14c9.58-9.22,14.27-19.15,14.27-26.56,0-8.13-5.06-13.18-14.63-13.18H29.68v43.35H2.4V614.16H87.84C114.94,614.16,130.47,631.14,130.47,658.23Z"/><path class="cls-2" d="M65.63,463c37,0,64.84,29.26,64.84,68.46s-27.81,68.46-64.84,68.46c-36.85,0-64.13-29.26-64.13-68.46S29,463,65.63,463Zm.18,103c20.59,0,36.48-16.08,36.48-34.86,0-19-15.89-34.14-36.48-34.14S29.68,512.1,29.68,531.07,45.21,565.93,65.81,565.93Z"/><path class="cls-3" d="M34.38,339.42c13.18,0,23.84,8.49,27.45,21.85,3.25-16.07,15.72-26,32-26,21.68,0,35.23,19,35.23,48.77v62.5H2.4V386.38C2.4,357.66,14.87,339.42,34.38,339.42Zm5.78,33.95c-7.59,0-12.11,5.6-11.93,14.82v25.28H52.8V388.19C52.8,379,48.1,373.37,40.16,373.37Zm49.49-4c-8,0-13,7.23-12.83,18.79v25.28h26.56V388.19C103.38,376.63,98.32,369.4,89.65,369.4Z"/><path class="cls-4" d="M2.4,219.65H29.68v37.94H129v33.05H29.68v37.58H2.4Z"/><path class="cls-5" d="M2.4,183.34,94,151.73,2.4,119.94V86L129,135.48V169.8L2.4,218.93Z"/><path class="cls-6" d="M80.26,0V30h30V50.4h-30V80.56H59.66V50.4H29.5V30H59.66V0Z"/></g></svg>