<svg xmlns="http://www.w3.org/2000/svg" xmlns:xlink="http://www.w3.org/1999/xlink" viewBox="0 0 26.49 26.49"><defs><style>.cls-1{fill:url(#Degradado_sin_nombre_40);}.cls-2{fill:url(#Degradado_sin_nombre_40-2);}.cls-3{fill:url(#Degradado_sin_nombre_40-3);}</style><linearGradient id="Degradado_sin_nombre_40" x1="-232.01" y1="-29.41" x2="321.38" y2="66.83" gradientUnits="userSpaceOnUse"><stop offset="0.38" stop-color="#ffd545"/><stop offset="0.46" stop-color="#f69037"/><stop offset="0.54" stop-color="#f05a35"/><stop offset="0.63" stop-color="#ec1a75"/></linearGradient><linearGradient id="Degradado_sin_nombre_40-2" x1="-232.01" y1="-29.43" x2="321.38" y2="66.82" xlink:href="#Degradado_sin_nombre_40"/><linearGradient id="Degradado_sin_nombre_40-3" x1="-232.11" y1="-28.83" x2="321.28" y2="67.41" xlink:href="#Degradado_sin_nombre_40"/></defs><title>web</title><g id="Layer_5" data-name="Layer 5"><path class="cls-1" d="M18.37,26.49H8.11A8.12,8.12,0,0,1,0,18.37V8.11A8.12,8.12,0,0,1,8.11,0H18.37a8.12,8.12,0,0,1,8.12,8.11V18.37A8.13,8.13,0,0,1,18.37,26.49ZM8.11,1A7.14,7.14,0,0,0,1,8.11V18.37A7.13,7.13,0,0,0,8.11,25.5H18.37a7.13,7.13,0,0,0,7.13-7.13V8.11A7.14,7.14,0,0,0,18.37,1Z"/><path class="cls-2" d="M16.47,14.87l-1.35-.62a.36.36,0,0,0-.36,0l-.53.38a.54.54,0,0,1-.55,0,17.13,17.13,0,0,1-1.9-1.91.53.53,0,0,1,0-.54l.38-.53a.38.38,0,0,0,0-.37L11.62,10a.44.44,0,0,0-.4-.26h-.45a.41.41,0,0,0-.16,0,1.46,1.46,0,0,0-.78,1.38A5.56,5.56,0,0,0,11.7,14.7c.52.56,2,2,3.61,2a1.47,1.47,0,0,0,1.39-.78.45.45,0,0,0,0-.16v-.45A.44.44,0,0,0,16.47,14.87Z"/><path class="cls-3" d="M5.57,20.91l1.34-4.16a7.48,7.48,0,1,1,6.52,3.8,7.53,7.53,0,0,1-3.69-1Zm4.35-2.79.26.16a6.15,6.15,0,1,0-2-2l.16.26-.73,2.28Z"/><path class="cls-1" d="M18.37,26.49H8.11A8.12,8.12,0,0,1,0,18.37V8.11A8.12,8.12,0,0,1,8.11,0H18.37a8.12,8.12,0,0,1,8.12,8.11V18.37A8.13,8.13,0,0,1,18.37,26.49ZM8.11,1A7.14,7.14,0,0,0,1,8.11V18.37A7.13,7.13,0,0,0,8.11,25.5H18.37a7.13,7.13,0,0,0,7.13-7.13V8.11A7.14,7.14,0,0,0,18.37,1Z"/><path class="cls-2" d="M16.47,14.87l-1.35-.62a.36.36,0,0,0-.36,0l-.53.38a.54.54,0,0,1-.55,0,17.13,17.13,0,0,1-1.9-1.91.53.53,0,0,1,0-.54l.38-.53a.38.38,0,0,0,0-.37L11.62,10a.44.44,0,0,0-.4-.26h-.45a.41.41,0,0,0-.16,0,1.46,1.46,0,0,0-.78,1.38A5.56,5.56,0,0,0,11.7,14.7c.52.56,2,2,3.61,2a1.47,1.47,0,0,0,1.39-.78.45.45,0,0,0,0-.16v-.45A.44.44,0,0,0,16.47,14.87Z"/><path class="cls-3" d="M5.57,20.91l1.34-4.16a7.48,7.48,0,1,1,6.52,3.8,7.53,7.53,0,0,1-3.69-1Zm4.35-2.79.26.16a6.15,6.15,0,1,0-2-2l.16.26-.73,2.28Z"/></g></svg>